<svg xmlns="http://www.w3.org/2000/svg" className="h-5 w-5" viewBox="0 0 20 20">
    <rect class="cls-1" fill="#ffffff" opacity="0" width="20" height="20" />
    <rect class="cls-2" fill="#005add" width="20" height="20" rx="3.13" />
    <path class="cls-3" fill="#ffffff" d="M8.46,2.76H6.53A1,1,0,0,0,5.88,3L3.36,5.12a1,1,0,0,0-.13,1.46l.67.79a1,1,0,0,0,1.45.13l1-.88v9.59a1,1,0,0,0,1,1h1a1,1,0,0,0,1-1V3.79A1,1,0,0,0,8.46,2.76Z" />
    <path class="cls-3" fill="#ffffff" d="M10.61,11.28A1,1,0,1,0,12,10.9,1.05,1.05,0,0,0,10.61,11.28Zm1.17.68a.31.31,0,1,1-.11-.43A.31.31,0,0,1,11.78,12Z" />
    <path class="cls-3" fill="#ffffff" d="M16.62,13.62A1,1,0,1,0,17,15,1.05,1.05,0,0,0,16.62,13.62Zm-.25,1.06a.31.31,0,1,1-.11-.43A.32.32,0,0,1,16.37,14.68Z" />
    <path class="cls-3" fill="#ffffff" d="M12.34,16.19l-.48-.28a.42.42,0,0,1-.14-.58l3-5a.42.42,0,0,1,.57-.17l.48.28a.42.42,0,0,1,.14.58l-3,5A.42.42,0,0,1,12.34,16.19Z" />
</svg>